<?xml version="1.0" standalone="no"?>
<!DOCTYPE svg PUBLIC "-//W3C//DTD SVG 20010904//EN"
 "http://www.w3.org/TR/2001/REC-SVG-20010904/DTD/svg10.dtd">
<svg version="1.0" xmlns="http://www.w3.org/2000/svg"
 width="48.000000pt" height="48.000000pt" viewBox="0 0 48.000000 48.000000"
 preserveAspectRatio="xMidYMid meet">
<metadata>
Created by potrace 1.15, written by Peter Selinger 2001-2017
</metadata>
<g transform="translate(0.000000,48.000000) scale(0.100000,-0.100000)"
fill="#000000" stroke="none">
<path d="M226 381 c6 -44 4 -50 -16 -61 -18 -9 -25 -8 -41 6 -10 9 -19 25 -19
34 0 19 -18 30 -37 23 -22 -8 -15 -43 10 -52 33 -13 47 -34 40 -59 -6 -23 -45
-30 -72 -13 -20 13 -41 2 -41 -19 0 -21 21 -32 41 -19 27 17 66 10 72 -13 7
-25 -7 -46 -40 -59 -39 -14 -24 -65 15 -52 6 3 12 13 12 22 0 10 9 26 19 35
16 14 23 15 41 6 20 -11 22 -17 16 -61 -6 -45 -5 -49 14 -49 23 0 41 31 22 38
-21 7 -14 60 9 72 16 9 25 8 40 -6 10 -9 19 -23 19 -29 0 -7 7 -18 16 -25 12
-11 18 -10 31 3 13 13 14 19 3 31 -7 9 -17 16 -23 16 -6 0 -18 7 -28 16 -14
13 -16 20 -7 40 12 26 55 33 75 13 15 -15 33 -3 33 21 0 24 -18 36 -33 21 -20
-20 -63 -13 -75 13 -9 20 -7 27 7 40 10 9 22 16 28 16 6 0 16 7 23 16 19 22
-12 53 -34 34 -9 -7 -16 -18 -16 -25 0 -6 -8 -19 -17 -27 -28 -24 -63 -6 -63
31 0 16 5 31 12 33 19 7 1 38 -22 38 -19 0 -20 -4 -14 -49z"/>
</g>
</svg>
