<?xml version="1.0" standalone="no"?>
<!DOCTYPE svg PUBLIC "-//W3C//DTD SVG 20010904//EN"
 "http://www.w3.org/TR/2001/REC-SVG-20010904/DTD/svg10.dtd">
<svg version="1.0" xmlns="http://www.w3.org/2000/svg"
 width="48.000000pt" height="48.000000pt" viewBox="0 0 48.000000 48.000000"
 preserveAspectRatio="xMidYMid meet">
<metadata>
Created by potrace 1.15, written by Peter Selinger 2001-2017
</metadata>
<g transform="translate(0.000000,48.000000) scale(0.100000,-0.100000)"
fill="#000000" stroke="none">
<path d="M50 240 l0 -180 195 0 195 0 0 180 0 180 -195 0 -195 0 0 -180z m36
138 c-1 -17 5 -23 19 -23 14 0 20 6 19 23 -1 22 2 22 116 22 114 0 117 0 116
-22 -1 -17 5 -23 19 -23 14 0 20 6 19 23 0 15 5 22 18 22 13 0 18 -8 18 -30
l0 -30 -185 0 -185 0 0 30 c0 18 5 30 13 30 8 0 13 -10 13 -22z m342 -180 l-3
-123 -180 0 -180 0 -3 123 -3 122 186 0 186 0 -3 -122z"/>
<path d="M86 298 c-18 -10 -21 -39 -5 -55 8 -8 8 -13 0 -17 -14 -9 -14 -56 0
-56 8 0 8 -4 -1 -14 -6 -8 -10 -25 -8 -38 3 -23 4 -23 160 -24 119 -1 160 2
169 12 12 15 3 54 -14 54 -6 0 -3 6 7 13 19 14 15 57 -5 57 -6 0 -3 7 5 16 20
20 20 29 0 49 -10 9 -23 13 -33 9 -9 -3 -22 -6 -28 -5 -7 0 -20 1 -28 1 -8 0
-22 0 -30 0 -23 1 -54 1 -67 0 -7 0 -34 1 -60 3 -26 2 -54 0 -62 -5z"/>
</g>
</svg>
