<?xml version="1.0" standalone="no"?>
<!DOCTYPE svg PUBLIC "-//W3C//DTD SVG 20010904//EN"
 "http://www.w3.org/TR/2001/REC-SVG-20010904/DTD/svg10.dtd">
<svg version="1.0" xmlns="http://www.w3.org/2000/svg"
 width="48.000000pt" height="48.000000pt" viewBox="0 0 48.000000 48.000000"
 preserveAspectRatio="xMidYMid meet">
<metadata>
Created by potrace 1.15, written by Peter Selinger 2001-2017
</metadata>
<g transform="translate(0.000000,48.000000) scale(0.100000,-0.100000)"
fill="#000000" stroke="none">
<path d="M78 413 l-48 -4 0 -178 0 -179 210 0 210 0 0 178 0 177 -67 6 c-69 7
-218 7 -305 0z m142 -162 l0 -148 -52 -7 c-29 -4 -69 -8 -88 -9 l-35 -2 -3
120 c-3 136 3 186 21 179 7 -2 31 0 52 5 22 5 55 9 73 10 l32 1 0 -149z m183
135 l27 -1 0 -154 0 -153 -42 6 c-24 4 -63 9 -88 12 l-45 6 3 150 3 151 57 -8
c31 -5 69 -9 85 -9z"/>
</g>
</svg>
